<svg width="1200" height="900" viewBox="0 0 1200 900" fill="none" xmlns="http://www.w3.org/2000/svg">
  <rect width="1200" height="900" rx="36" fill="#F7FBFF"/>
  <rect x="48" y="48" width="1104" height="804" rx="28" fill="#FFFFFF" stroke="#D7E8F7" stroke-width="8"/>

  <rect x="96" y="96" width="1008" height="110" rx="22" fill="#113B5C"/>
  <text x="600" y="148" text-anchor="middle" font-family="Arial, Helvetica, sans-serif" font-size="50" font-weight="700" fill="#FFFFFF">
    SCENE SAFETY FIRST
  </text>
  <text x="600" y="186" text-anchor="middle" font-family="Arial, Helvetica, sans-serif" font-size="26" font-weight="600" fill="#C7E6FF">
    Wear gloves and a mask before touching the patient
  </text>

  <circle cx="600" cy="435" r="130" fill="#FFD8B8"/>
  <path d="M500 409C500 344 548 298 600 298C652 298 700 344 700 409V445H500V409Z" fill="#2C5AA0"/>
  <circle cx="550" cy="425" r="10" fill="#18324A"/>
  <circle cx="650" cy="425" r="10" fill="#18324A"/>
  <path d="M545 514H655C670 514 682 502 682 487V460C682 446 670 434 655 434H545C530 434 518 446 518 460V487C518 502 530 514 545 514Z" fill="#E8F4FB" stroke="#7BA7C7" stroke-width="8"/>
  <path d="M532 468H668" stroke="#7BA7C7" stroke-width="8" stroke-linecap="round"/>
  <path d="M560 514L575 560" stroke="#7BA7C7" stroke-width="8" stroke-linecap="round"/>
  <path d="M640 514L625 560" stroke="#7BA7C7" stroke-width="8" stroke-linecap="round"/>
  <path d="M540 393C555 380 575 372 600 372C625 372 645 380 660 393" stroke="#18324A" stroke-width="8" stroke-linecap="round"/>

  <g transform="translate(182 500)">
    <rect x="0" y="0" width="190" height="190" rx="28" fill="#E8F7FF"/>
    <path d="M78 146L58 70C52 49 64 28 84 23C100 19 114 28 120 42L139 93L145 63C149 47 163 37 178 39C196 42 208 60 203 78L187 145C183 162 165 173 147 169L99 160C89 158 81 153 78 146Z" fill="#4DB6E8"/>
    <path d="M58 70L44 53" stroke="#2D88B8" stroke-width="8" stroke-linecap="round"/>
    <text x="95" y="34" text-anchor="middle" font-family="Arial, Helvetica, sans-serif" font-size="28" font-weight="700" fill="#113B5C">
      GLOVES
    </text>
  </g>

  <g transform="translate(828 500)">
    <rect x="0" y="0" width="190" height="190" rx="28" fill="#FFF4E8"/>
    <path d="M50 118C50 70 89 40 141 40C177 40 198 61 198 88C198 119 173 140 140 140C121 140 107 151 100 168C98 173 91 173 88 169C81 156 70 143 50 132V118Z" fill="#FF9C42"/>
    <text x="95" y="34" text-anchor="middle" font-family="Arial, Helvetica, sans-serif" font-size="28" font-weight="700" fill="#8A4B11">
      MASK
    </text>
    <path d="M115 86H166" stroke="#FFFFFF" stroke-width="10" stroke-linecap="round"/>
    <path d="M115 108H166" stroke="#FFFFFF" stroke-width="10" stroke-linecap="round"/>
  </g>

  <g transform="translate(120 270)">
    <circle cx="90" cy="90" r="90" fill="#EAF6EC"/>
    <circle cx="90" cy="90" r="65" fill="#38A169"/>
    <path d="M58 92L80 114L122 72" stroke="#FFFFFF" stroke-width="16" stroke-linecap="round" stroke-linejoin="round"/>
    <text x="90" y="206" text-anchor="middle" font-family="Arial, Helvetica, sans-serif" font-size="24" font-weight="700" fill="#245D38">
      PPE READY
    </text>
  </g>

  <g transform="translate(890 260)">
    <circle cx="90" cy="90" r="90" fill="#FFF0F0"/>
    <circle cx="90" cy="90" r="65" fill="#E05353"/>
    <path d="M61 61L119 119" stroke="#FFFFFF" stroke-width="16" stroke-linecap="round"/>
    <path d="M119 61L61 119" stroke="#FFFFFF" stroke-width="16" stroke-linecap="round"/>
    <text x="90" y="206" text-anchor="middle" font-family="Arial, Helvetica, sans-serif" font-size="24" font-weight="700" fill="#8B2F2F">
      NO CONTACT
    </text>
  </g>

  <rect x="292" y="710" width="616" height="90" rx="20" fill="#F6FBFF" stroke="#D7E8F7" stroke-width="6"/>
  <text x="600" y="765" text-anchor="middle" font-family="Arial, Helvetica, sans-serif" font-size="32" font-weight="700" fill="#113B5C">
    Protect yourself before patient contact
  </text>
</svg>
